<svg xmlns="http://www.w3.org/2000/svg" viewBox="0 0 1594.65 446.85"><defs><style>.cls-1,.cls-2,.cls-6{fill:#fff;}.cls-2,.cls-6{font-size:106px;}.cls-2,.cls-7,.cls-8{font-family:Montserrat-ExtraBold, Montserrat;font-weight:700;}.cls-3{letter-spacing:-0.02em;}.cls-4,.cls-7{letter-spacing:-0.01em;}.cls-5{letter-spacing:0em;}.cls-6{font-family:Montserrat-Medium, Montserrat;}</style></defs><title>Recurso 3</title><g id="Capa_2" data-name="Capa 2"><g id="Capa_2-2" data-name="Capa 2"><path class="cls-1" d="M443.68,155.73a66.8,66.8,0,0,0-64.81,51h20.84a46.7,46.7,0,1,1,0,31.45H378.88a66.69,66.69,0,1,0,64.8-82.43Z"/><path class="cls-1" d="M469.74,215.71a26.92,26.92,0,0,0-52.14,0H70.09l-.08-.08L50.1,195.73a26.94,26.94,0,1,0-9.52,9.51l10.47,10.47,11.49,11.48a4.88,4.88,0,0,0,.53.48l.28.21.3.2a6.91,6.91,0,0,0,3.65,1.08H417.61a26.92,26.92,0,0,0,52.13,0,27.78,27.78,0,0,0,.84-6.74A27.05,27.05,0,0,0,469.74,215.71ZM37,182.63a10.1,10.1,0,0,1-9.51,9.52h-.56A10.1,10.1,0,1,1,37,182.06C37,182.26,37,182.44,37,182.63Zm414.19,46.53a10.08,10.08,0,1,1,2.58-6.74A10,10,0,0,1,451.19,229.16Z"/><text class="cls-2" transform="translate(696.65 212.21)">A<tspan class="cls-3" x="83.32" y="0">D</tspan><tspan class="cls-4" x="168.33" y="0">V</tspan><tspan class="cls-5" x="247.93" y="0">ENT</tspan></text><text class="cls-6" transform="translate(688.76 311.17)">OF <tspan class="cls-7" x="184.86" y="0">C</tspan><tspan class="cls-8" x="261.5" y="0">ORONA</tspan></text><path class="cls-1" d="M601.66,65.44a223.44,223.44,0,0,0-380.8,141.27h50.2C279.5,118.89,353.69,50,443.68,50,539.3,50,617.1,127.8,617.1,223.42S539.3,396.85,443.68,396.85c-90.67,0-165.29-69.93-172.8-158.69H220.74A223.42,223.42,0,1,0,601.66,65.44Z"/><path class="cls-1" d="M443.68,90c-67.89,0-124.09,51-132.34,116.67h40.45a93.41,93.41,0,1,1-.33,31.45H311.11c7.36,66.64,64,118.65,132.57,118.65,73.55,0,133.38-59.84,133.38-133.39S517.23,90,443.68,90Z"/></g></g></svg>