<svg xmlns="http://www.w3.org/2000/svg" viewBox="0 0 1375.04 446.84"><defs><style>.cls-1{fill:#fff;}.cls-2{isolation:isolate;}</style></defs><title>Recurso 1</title><g id="Capa_2" data-name="Capa 2"><g id="Capa_1-2" data-name="Capa 1"><g id="Capa_2-2" data-name="Capa 2"><g id="Capa_2-2-2" data-name="Capa 2-2"><path class="cls-1" d="M443.72,155.73a66.8,66.8,0,0,0-64.81,51h20.84a46.69,46.69,0,1,1,0,31.45H378.92a66.69,66.69,0,1,0,64.8-82.43Z"/><path class="cls-1" d="M469.78,215.71a26.92,26.92,0,0,0-52.14,0H70.13l-.08-.08-19.91-19.9a26.94,26.94,0,1,0-9.52,9.51l10.47,10.47,11.49,11.48a6,6,0,0,0,.53.48l.28.21.3.2a7,7,0,0,0,3.65,1.08H417.65a26.92,26.92,0,0,0,52.13,0,27.9,27.9,0,0,0,.84-6.74A27.06,27.06,0,0,0,469.78,215.71ZM37,182.63a10.11,10.11,0,0,1-9.51,9.52H27A10.1,10.1,0,1,1,37,182v.61Zm414.19,46.53a10.09,10.09,0,1,1,2.58-6.74A10.08,10.08,0,0,1,451.23,229.16Z"/><g class="cls-2"><g class="cls-2"><path class="cls-1" d="M754.35,196.31H719.9l-6.57,15.9H695.74L728.81,138h17L779,212.21h-18Zm-5.4-13-11.77-28.41-11.76,28.41Z"/></g><g class="cls-2"><path class="cls-1" d="M788.81,138h33.71a47.34,47.34,0,0,1,21.36,4.61,34.52,34.52,0,0,1,14.41,13,39.58,39.58,0,0,1,0,39,34.52,34.52,0,0,1-14.41,13,47.34,47.34,0,0,1-21.36,4.62H788.81Zm32.86,60.1q11.13,0,17.75-6.2t6.63-16.8q0-10.61-6.63-16.81t-17.75-6.2H806v46Z"/></g><g class="cls-2"><path class="cls-1" d="M945.16,138,913,212.21h-17l-32-74.2h18.55l22.57,53,22.9-53Z"/></g><g class="cls-2"><path class="cls-1" d="M1010.87,198.43v13.78H953.42V138h56.07v13.78h-39V167.9h34.45v13.35H970.48v17.18Z"/><path class="cls-1" d="M1092.6,138v74.2h-14.1l-37-45.05v45.05h-17V138h14.21l36.89,45.05V138Z"/><path class="cls-1" d="M1125.56,152h-23.74V138h64.66v14h-23.75v60.21h-17.17Z"/></g></g><g class="cls-2"><g class="cls-2"><path class="cls-1" d="M713.18,307.08A36.34,36.34,0,0,1,699,293.46a39.16,39.16,0,0,1,0-38.79,36.34,36.34,0,0,1,14.15-13.62,43.83,43.83,0,0,1,40.39,0,36.18,36.18,0,0,1,14.09,13.56,39.73,39.73,0,0,1,0,38.91,36.11,36.11,0,0,1-14.09,13.56,43.83,43.83,0,0,1-40.39,0Zm34.93-8.21a27.22,27.22,0,0,0,10.28-10.23,30.13,30.13,0,0,0,0-29.15,27.29,27.29,0,0,0-10.28-10.23,29.2,29.2,0,0,0-14.68-3.71,29.77,29.77,0,0,0-14.79,3.71,27,27,0,0,0-10.39,10.23,30.13,30.13,0,0,0,0,29.15,27,27,0,0,0,10.39,10.23,29.77,29.77,0,0,0,14.79,3.71A29.2,29.2,0,0,0,748.11,298.87Z"/><path class="cls-1" d="M799.57,246.19v25.86h37.21v9.12H799.57v30H789V237h52.36v9.22Z"/></g><g class="cls-2"><path class="cls-1" d="M897.46,307.51A36.8,36.8,0,0,1,883,293.83a39.83,39.83,0,0,1,0-39.53,36.8,36.8,0,0,1,14.42-13.68,45.94,45.94,0,0,1,38-1.53,34.83,34.83,0,0,1,13.09,9.75l-11,10.17a23.73,23.73,0,0,0-18.66-8.69,24.79,24.79,0,0,0-12.29,3,21.49,21.49,0,0,0-8.43,8.43,26.54,26.54,0,0,0,0,24.59,21.43,21.43,0,0,0,8.43,8.43,24.79,24.79,0,0,0,12.29,3,23.59,23.59,0,0,0,18.66-8.8l11,10.18a34.42,34.42,0,0,1-13.14,9.86A43.65,43.65,0,0,1,918,312.44,42.68,42.68,0,0,1,897.46,307.51Z"/></g><g class="cls-2"><path class="cls-1" d="M974.2,307.46a37,37,0,0,1-19.77-33.39,37.48,37.48,0,0,1,5.25-19.67,37,37,0,0,1,14.52-13.72,45.87,45.87,0,0,1,41.61,0,37.85,37.85,0,0,1,0,66.78,45.95,45.95,0,0,1-41.61,0Zm32.7-12.67a21.61,21.61,0,0,0,8.32-8.43,26.46,26.46,0,0,0,0-24.59,21.68,21.68,0,0,0-8.32-8.43,24.84,24.84,0,0,0-23.74,0,21.75,21.75,0,0,0-8.32,8.43,26.54,26.54,0,0,0,0,24.59,21.68,21.68,0,0,0,8.32,8.43,24.84,24.84,0,0,0,23.74,0Z"/><path class="cls-1" d="M1095.84,311.17l-14.31-20.67h-15.8v20.67h-17.17V237h32.12a41.24,41.24,0,0,1,17.12,3.28,25.39,25.39,0,0,1,11.18,9.33,25.66,25.66,0,0,1,3.92,14.31,24.16,24.16,0,0,1-15.26,23.43l16.64,23.85Zm-4.35-56.87c-2.68-2.23-6.61-3.34-11.76-3.34h-14v25.86h14c5.15,0,9.08-1.13,11.76-3.39s4-5.44,4-9.54S1094.18,256.52,1091.49,254.3Z"/><path class="cls-1" d="M1141.58,307.46a37,37,0,0,1-14.53-13.73,39.52,39.52,0,0,1,0-39.33,36.94,36.94,0,0,1,14.53-13.72,45.85,45.85,0,0,1,41.6,0,37.85,37.85,0,0,1,0,66.78,45.93,45.93,0,0,1-41.6,0Zm32.7-12.67a21.75,21.75,0,0,0,8.32-8.43,26.54,26.54,0,0,0,0-24.59,21.81,21.81,0,0,0-8.32-8.43,24.86,24.86,0,0,0-23.75,0,21.81,21.81,0,0,0-8.32,8.43,26.54,26.54,0,0,0,0,24.59,21.75,21.75,0,0,0,8.32,8.43,24.86,24.86,0,0,0,23.75,0Z"/><path class="cls-1" d="M1284,237v74.2h-14.1l-37-45.05v45.05h-17V237h14.21L1267,282V237Z"/><path class="cls-1" d="M1350.45,295.27H1316l-6.57,15.9h-17.6L1324.9,237h17l33.18,74.2h-18Zm-5.41-13-11.76-28.41-11.77,28.41Z"/></g></g><path class="cls-1" d="M601.7,65.44c-87.26-87.26-228.74-87.25-316,0A223.48,223.48,0,0,0,220.9,206.71h50.2C279.54,118.89,353.73,50,443.72,50c95.62,0,173.42,77.8,173.42,173.42s-77.8,173.43-173.42,173.43c-90.67,0-165.29-69.93-172.8-158.69H220.78c8.14,123.12,114.55,216.33,237.68,208.19S674.79,331.79,666.65,208.67A223.44,223.44,0,0,0,601.7,65.44Z"/><path class="cls-1" d="M443.72,90c-67.89,0-124.09,51-132.34,116.67h40.45a93.4,93.4,0,1,1-.33,31.45H311.15c7.36,66.64,64,118.65,132.57,118.65,73.55,0,133.38-59.84,133.38-133.39S517.27,90,443.72,90Z"/></g></g></g></g></svg>