<svg xmlns="http://www.w3.org/2000/svg" viewBox="0 0 279.748 279.748">
  <path fill="#ffffff" d="M279.748 133.142c0-19.299-15.701-35-35-35-10.768 0-20.674 4.812-27.279 13.064-18.532-8.431-39.663-13.626-62.015-15.271l19.206-60.692 42.895 9.294c3.285 12.782 14.901 22.258 28.693 22.258 16.336 0 29.627-13.29 29.627-29.626 0-16.336-13.291-29.627-29.627-29.627-11.801 0-21.999 6.941-26.759 16.95l-49.497-10.725a10.002 10.002 0 00-11.651 6.756L134.636 95.43c-26.164.638-50.988 6.053-72.356 15.775-6.606-8.251-16.512-13.063-27.28-13.063-19.299 0-35 15.701-35 35 0 9.373 3.683 18.173 10.222 24.709-3.9 8.37-5.875 17.076-5.875 25.936 0 24.048 14.396 46.492 40.538 63.199 25.447 16.264 59.183 25.221 94.989 25.221 35.808 0 69.542-8.957 94.989-25.221 26.142-16.707 40.538-39.151 40.538-63.199 0-8.859-1.975-17.565-5.875-25.936 6.539-6.537 10.222-15.336 10.222-24.709zM15.369 145.139c-2.212-3.59-3.369-7.688-3.369-11.997 0-12.682 10.317-23 23-23 5.444 0 10.558 1.851 14.649 5.258-14.622 8.302-26.132 18.289-34.28 29.739zm52.671 20.266c0-13.785 11.215-25 25-25s25 11.215 25 25-11.215 25-25 25-25-11.215-25-25zm123.119 57.054c-9.745 10.637-29.396 17.244-51.285 17.244-21.888 0-41.539-6.607-51.284-17.244a9.937 9.937 0 01-2.617-7.192 9.933 9.933 0 013.235-6.937 9.974 9.974 0 016.754-2.627c2.797 0 5.484 1.183 7.373 3.244 5.803 6.333 20.827 10.756 36.539 10.756s30.737-4.423 36.539-10.756a10.022 10.022 0 017.374-3.244c2.508 0 4.906.933 6.755 2.627a9.928 9.928 0 013.234 6.937 9.933 9.933 0 01-2.617 7.192zm-4.451-32.054c-13.785 0-25-11.215-25-25s11.215-25 25-25 25 11.215 25 25-11.215 25-25 25zm77.671-45.266c-8.147-11.45-19.657-21.436-34.28-29.739 4.092-3.408 9.205-5.258 14.649-5.258 12.683 0 23 10.318 23 23 0 4.309-1.157 8.407-3.369 11.997z"/>
</svg>
